<svg xmlns="http://www.w3.org/2000/svg" viewBox="0 0 63.619 63.617"><circle fill="#7FEAFF" cx="31.809" cy="31.81" r="31.67"/><path d="M31.809 59.984c-15.537 0-28.176-12.639-28.176-28.174 0-15.537 12.64-28.177 28.176-28.177s28.177 12.64 28.177 28.177c0 15.535-12.64 28.174-28.177 28.174zm0-56.072c-15.383 0-27.897 12.514-27.897 27.898 0 15.381 12.514 27.895 27.897 27.895S59.706 47.191 59.706 31.81c0-15.383-12.513-27.898-27.897-27.898z"/><path d="M31.809 63.617C14.27 63.617 0 49.348 0 31.81 0 14.27 14.27 0 31.809 0c17.541 0 31.81 14.27 31.81 31.81 0 17.538-14.269 31.807-31.81 31.807zm0-63.337C14.423.28.279 14.424.279 31.81c0 17.384 14.144 31.527 31.53 31.527S63.34 49.194 63.34 31.81C63.34 14.424 49.195.28 31.809.28z"/><g><path d="M31.809 63.617a.14.14 0 0 1-.14-.139V60.03a.14.14 0 0 1 .281 0v3.448a.14.14 0 0 1-.141.139zM31.809 3.726a.14.14 0 0 1-.14-.14V.14a.14.14 0 0 1 .281 0v3.447a.14.14 0 0 1-.141.139zM17.698 7.507a.14.14 0 0 1-.121-.07l-1.723-2.985a.14.14 0 0 1 .052-.191.14.14 0 0 1 .19.052l1.723 2.985a.14.14 0 0 1-.121.209zM47.645 59.374a.139.139 0 0 1-.121-.07L45.8 56.321a.139.139 0 0 1 .051-.191.138.138 0 0 1 .191.052l1.722 2.984a.137.137 0 0 1-.119.208zM7.368 17.837a.14.14 0 0 1-.07-.019l-2.984-1.723a.138.138 0 0 1-.05-.191.14.14 0 0 1 .19-.052l2.985 1.724a.14.14 0 0 1 .05.191.139.139 0 0 1-.121.07zM59.235 47.782a.134.134 0 0 1-.069-.018l-2.986-1.722a.14.14 0 0 1-.05-.191.138.138 0 0 1 .19-.051l2.986 1.722a.14.14 0 0 1-.071.26zM3.587 31.948H.141a.14.14 0 0 1 0-.281l3.447.002a.14.14 0 0 1-.001.279zM60.031 31.949a.14.14 0 1 1 0-.28l3.448-.002a.14.14 0 1 1 0 .28l-3.448.002zM4.383 47.782a.14.14 0 0 1-.071-.26L7.298 45.8a.14.14 0 0 1 .191.051.14.14 0 0 1-.05.191l-2.985 1.722a.144.144 0 0 1-.071.018zM56.252 17.837a.14.14 0 0 1-.071-.261l2.985-1.724a.14.14 0 0 1 .141.242l-2.986 1.724a.129.129 0 0 1-.069.019zM15.975 59.374a.138.138 0 0 1-.121-.208l1.723-2.985a.14.14 0 0 1 .192-.052.14.14 0 0 1 .051.191l-1.724 2.984a.139.139 0 0 1-.121.07zM45.922 7.507a.14.14 0 0 1-.122-.209l1.722-2.986a.14.14 0 1 1 .241.14l-1.721 2.985a.138.138 0 0 1-.12.07zM33.088 63.617a.14.14 0 0 1-.14-.139V60.03a.14.14 0 1 1 .28 0v3.448a.14.14 0 0 1-.14.139z"/></g><g><path fill="#C1272D" d="M26.777 27.228l.467-.472 12.628 12.942 12.627 12.944-13.095-12.471L26.31 27.7z"/><ellipse transform="rotate(-151.021 31.38 31.72)" fill="#C1272D" cx="31.379" cy="31.721" rx="1.724" ry="1.666"/><ellipse transform="scale(-1) rotate(29.008 122.629 -121.306)" fill="#231F20" cx="31.379" cy="31.721" rx=".885" ry=".827"/></g></svg>
