<svg xmlns="http://www.w3.org/2000/svg" viewBox="0 0 684.085 784.285"><path fill="none" stroke="#7FFFD4" stroke-width="3" stroke-miterlimit="10" d="M259.053 2.327S131.782 16.001 56.049 101.199c0 0-79.935 87.3-46.278 241.92 0 0 12.624 55.749 50.489 106.238 0 0 57.85 83.096 65.214 93.613 0 0 29.588 46.281 5.854 120.962 0 0-15.318 64.155-48.979 118.852h343.95s-4.376-9.522 3.816-45.374c0 0 1.538-20.488 10.246-41.485 0 0 6.655-23.56 43.531-24.071 0 0 64.022.512 85.532 0 0 0 38.926-6.15 46.098-35.34 0 0 2.05-7.683-4.097-29.194 0 0-7.175-14.341 7.168-27.657 0 0 17.929-11.781 7.684-32.78 0 0 32.957-22.021 1.628-49.167 0 0-4.633-10.757 16.074-17.415 0 0 46.221-6.658 37.513-36.876 0 0-35.752-53.265-71.092-93.728 0 0-19.463-20.998 5.122-43.022 0 0 6.658-45.582-40.461-146.993 0 0-42.513-82.973-121.898-121.386 0 0-64.017-43.256-194.11-35.969z"/></svg>
