<svg xmlns="http://www.w3.org/2000/svg" viewBox="0 0 320 372"><path fill="#7FFFD4" d="M188.759 23.484c0 12.822-12.349 23.216-27.583 23.216-15.232 0-27.582-10.395-27.582-23.216 0-12.822 12.35-23.217 27.582-23.217 15.234 0 27.583 10.394 27.583 23.217zm-4.378 0c0-10.77-10.411-19.531-23.205-19.531-12.794 0-23.203 8.762-23.203 19.531 0 10.769 10.409 19.531 23.203 19.531 12.794 0 23.205-8.762 23.205-19.531z"/><path fill="#7FFFD4" d="M152.636 31.726h17.862V55.43h-17.862z"/><path fill="#407F6A" d="M149.553 16.225h23.642v15.501h-23.642z"/><path fill="#7FFFD4" d="M243.094 67.674l14.474 8.239-4.024 7.07-14.474-8.24z"/><path fill="#C1272D" d="M247.732 53.685l19.159 10.903-7.15 12.562-19.158-10.903z"/><path fill="#DFFEF4" d="M294.303 210.88c0 73.92-59.926 133.846-133.852 133.846S26.597 284.8 26.597 210.88c0-73.927 59.928-133.854 133.854-133.854 73.926 0 133.852 59.928 133.852 133.854z"/><path d="M160.451 92.144a.55.55 0 0 1-.55-.55V77.026a.55.55 0 1 1 1.1 0v14.568a.55.55 0 0 1-.55.55zM160.451 345.277a.55.55 0 0 1-.55-.55V330.16a.55.55 0 1 1 1.1 0v14.567a.55.55 0 0 1-.55.55z"/><path fill="#666" d="M147.982 92.522a.275.275 0 0 1-.273-.246l-1.522-14.488a.275.275 0 0 1 .244-.302.27.27 0 0 1 .302.244l1.522 14.488a.274.274 0 0 1-.244.302c-.009.002-.019.002-.029.002zM174.442 344.268a.275.275 0 0 1-.274-.246l-1.522-14.487a.277.277 0 0 1 .245-.303c.149-.009.288.095.303.245l1.522 14.487a.277.277 0 0 1-.245.303l-.029.001zM135.65 94.476a.276.276 0 0 1-.269-.218l-3.028-14.249a.275.275 0 0 1 .212-.326.282.282 0 0 1 .326.212l3.028 14.249a.275.275 0 0 1-.269.332zM188.28 342.076a.274.274 0 0 1-.269-.218l-3.029-14.249a.274.274 0 0 1 .212-.326.269.269 0 0 1 .326.212l3.029 14.249a.274.274 0 0 1-.269.332zM123.59 97.707a.276.276 0 0 1-.262-.19l-4.501-13.855a.275.275 0 1 1 .524-.17l4.501 13.855a.275.275 0 0 1-.262.36zM201.813 338.45a.274.274 0 0 1-.261-.19l-4.502-13.854a.273.273 0 0 1 .176-.346.273.273 0 0 1 .346.176l4.502 13.854a.273.273 0 0 1-.261.36zM111.934 102.181a.275.275 0 0 1-.251-.163l-5.925-13.308a.275.275 0 1 1 .503-.223l5.925 13.308a.275.275 0 0 1-.252.386zM214.893 333.429a.276.276 0 0 1-.251-.163l-5.925-13.307a.276.276 0 0 1 .503-.223l5.925 13.307a.276.276 0 0 1-.252.386z"/><path d="M100.809 108.125a.55.55 0 0 1-.477-.275l-7.283-12.616a.55.55 0 1 1 .953-.55l7.283 12.616a.55.55 0 0 1-.476.825zM227.377 327.343a.55.55 0 0 1-.476-.275l-7.284-12.614a.549.549 0 1 1 .952-.55l7.284 12.614a.548.548 0 0 1-.476.825z"/><path fill="#666" d="M90.338 114.65a.272.272 0 0 1-.222-.113l-8.562-11.786a.275.275 0 0 1 .445-.323l8.562 11.786a.275.275 0 0 1-.223.436zM239.127 319.436a.273.273 0 0 1-.222-.114l-8.563-11.783a.275.275 0 0 1 .445-.323L239.349 319a.275.275 0 0 1-.222.436zM80.635 122.507a.274.274 0 0 1-.204-.091l-9.748-10.826a.274.274 0 0 1 .02-.388.272.272 0 0 1 .388.02l9.748 10.826a.274.274 0 0 1-.204.459zM250.014 310.62a.274.274 0 0 1-.204-.091l-9.748-10.824a.275.275 0 0 1 .408-.368l9.748 10.824a.275.275 0 0 1-.204.459zM71.806 131.335a.271.271 0 0 1-.184-.071l-10.825-9.747a.274.274 0 0 1-.02-.388.273.273 0 0 1 .388-.02l10.825 9.747a.274.274 0 0 1-.184.479zM259.921 300.713a.276.276 0 0 1-.184-.071l-10.827-9.746a.274.274 0 0 1-.02-.388.274.274 0 0 1 .388-.02l10.827 9.746a.273.273 0 0 1 .02.388.271.271 0 0 1-.204.091zM63.947 141.038a.273.273 0 0 1-.162-.053l-11.783-8.563a.275.275 0 0 1 .323-.445l11.783 8.563a.275.275 0 0 1-.161.498zM268.739 289.824a.268.268 0 0 1-.161-.053l-11.787-8.559a.273.273 0 0 1-.061-.384.273.273 0 0 1 .384-.061l11.787 8.559a.276.276 0 1 1-.162.498z"/><path d="M57.148 151.784a.543.543 0 0 1-.274-.074l-12.615-7.284a.55.55 0 0 1 .551-.953l12.615 7.284a.55.55 0 0 1-.277 1.027zM276.368 278.35a.549.549 0 0 1-.275-.074l-12.615-7.28a.55.55 0 1 1 .55-.952l12.615 7.28a.55.55 0 0 1-.275 1.026z"/><path fill="#666" d="M51.479 162.635a.26.26 0 0 1-.112-.024l-13.306-5.926a.276.276 0 0 1-.14-.363.277.277 0 0 1 .363-.14l13.306 5.926a.276.276 0 0 1-.111.527zM282.728 265.591a.263.263 0 0 1-.112-.024l-13.309-5.922a.276.276 0 0 1 .223-.503l13.308 5.922a.276.276 0 0 1-.11.527zM47.005 174.292a.279.279 0 0 1-.085-.013l-13.853-4.503a.276.276 0 0 1-.177-.346.277.277 0 0 1 .346-.177l13.853 4.503a.274.274 0 1 1-.084.536zM287.749 252.512a.253.253 0 0 1-.085-.014l-13.855-4.499a.273.273 0 0 1-.176-.346.273.273 0 0 1 .346-.176l13.855 4.499a.273.273 0 0 1 .176.346.274.274 0 0 1-.261.19zM43.775 186.352a.286.286 0 0 1-.058-.006l-14.249-3.03a.277.277 0 0 1-.212-.327.279.279 0 0 1 .327-.212l14.249 3.031a.275.275 0 0 1-.057.544zM291.375 238.978a.283.283 0 0 1-.057-.006l-14.248-3.025a.275.275 0 0 1-.212-.326.272.272 0 0 1 .326-.212l14.249 3.025a.275.275 0 0 1-.058.544zM41.821 198.683l-.03-.001-14.487-1.524a.274.274 0 0 1-.244-.303.27.27 0 0 1 .302-.245l14.487 1.524a.275.275 0 1 1-.028.549zM293.567 225.141l-.029-.001-14.488-1.519a.277.277 0 0 1-.245-.303.282.282 0 0 1 .303-.245l14.488 1.519c.15.016.26.151.245.303a.276.276 0 0 1-.274.246z"/><path d="M41.167 211.427l-14.568-.001a.55.55 0 1 1 0-1.1l14.568.001a.55.55 0 1 1 0 1.1zM279.733 211.428a.55.55 0 1 1 0-1.1l14.568-.003a.55.55 0 1 1 0 1.1l-14.568.003z"/><path fill="#666" d="M27.333 225.142a.275.275 0 0 1-.028-.549l14.487-1.521a.279.279 0 0 1 .302.245.276.276 0 0 1-.245.303l-14.487 1.521-.029.001zM279.08 198.685a.275.275 0 0 1-.029-.549l14.487-1.527a.28.28 0 0 1 .303.245.277.277 0 0 1-.245.303l-14.487 1.527-.029.001zM29.525 238.98a.274.274 0 0 1-.057-.544l14.25-3.028a.272.272 0 0 1 .326.212.275.275 0 0 1-.212.326l-14.25 3.028a.283.283 0 0 1-.057.006zM277.128 186.352a.274.274 0 0 1-.269-.218.274.274 0 0 1 .212-.326l14.247-3.031a.274.274 0 0 1 .326.212.275.275 0 0 1-.212.327l-14.247 3.03a.291.291 0 0 1-.057.006zM33.151 252.513a.274.274 0 0 1-.085-.536l13.854-4.499a.274.274 0 1 1 .17.522l-13.854 4.5a.313.313 0 0 1-.085.013zM273.896 174.292a.275.275 0 0 1-.085-.537l13.853-4.504a.275.275 0 1 1 .17.524l-13.853 4.504a.279.279 0 0 1-.085.013zM38.171 265.592a.275.275 0 0 1-.111-.526l13.308-5.923a.275.275 0 1 1 .223.503l-13.308 5.923a.28.28 0 0 1-.112.023zM269.421 162.635a.276.276 0 0 1-.111-.526l13.307-5.928a.276.276 0 0 1 .223.503l-13.307 5.928a.277.277 0 0 1-.112.023z"/><path d="M44.533 278.351a.551.551 0 0 1-.276-1.026l12.616-7.281a.55.55 0 1 1 .551.952l-12.616 7.281a.552.552 0 0 1-.275.074zM263.754 151.787a.55.55 0 0 1-.275-1.027l12.613-7.288a.551.551 0 0 1 .55.953l-12.613 7.288a.552.552 0 0 1-.275.074z"/><path fill="#666" d="M52.162 289.826a.275.275 0 0 1-.161-.498l11.786-8.561a.275.275 0 0 1 .323.445l-11.786 8.561a.273.273 0 0 1-.162.053zM256.953 141.04a.276.276 0 0 1-.162-.497l11.783-8.566a.276.276 0 0 1 .325.445l-11.783 8.566a.291.291 0 0 1-.163.052zM60.978 300.714a.275.275 0 0 1-.185-.479l10.828-9.747a.275.275 0 1 1 .369.408l-10.828 9.747a.27.27 0 0 1-.184.071zM249.096 131.336a.274.274 0 0 1-.184-.479l10.823-9.75a.275.275 0 0 1 .368.408l-10.823 9.75a.273.273 0 0 1-.184.071zM70.886 310.621a.274.274 0 0 1-.204-.459l9.749-10.826a.274.274 0 0 1 .388-.02.274.274 0 0 1 .02.388L71.09 310.53a.273.273 0 0 1-.204.091zM240.268 122.507a.275.275 0 0 1-.204-.459l9.745-10.828a.275.275 0 0 1 .408.369l-9.745 10.828a.273.273 0 0 1-.204.09zM81.774 319.438a.276.276 0 0 1-.223-.438l8.564-11.784a.276.276 0 0 1 .445.325l-8.565 11.784a.274.274 0 0 1-.221.113zM230.565 114.65a.274.274 0 0 1-.222-.437l8.56-11.787a.274.274 0 0 1 .384-.061c.124.089.15.261.061.384l-8.56 11.787a.275.275 0 0 1-.223.114z"/><path d="M93.523 327.344a.55.55 0 0 1-.475-.825l7.285-12.615a.55.55 0 1 1 .953.55L94 327.069a.551.551 0 0 1-.477.275zM220.094 108.125a.549.549 0 0 1-.476-.826l7.28-12.617a.55.55 0 0 1 .952.551l-7.28 12.617a.548.548 0 0 1-.476.275z"/><path fill="#666" d="M106.007 333.43a.275.275 0 0 1-.252-.387l5.927-13.309a.275.275 0 0 1 .503.223l-5.927 13.308a.273.273 0 0 1-.251.165zM208.97 102.181a.276.276 0 0 1-.252-.387l5.921-13.309a.277.277 0 0 1 .363-.14.276.276 0 0 1 .14.363l-5.921 13.31a.276.276 0 0 1-.251.163zM119.087 338.451a.274.274 0 0 1-.262-.36l4.503-13.855a.274.274 0 0 1 .346-.176.274.274 0 0 1 .177.346l-4.503 13.855a.274.274 0 0 1-.261.19zM197.312 97.706a.274.274 0 0 1-.261-.359l4.499-13.855a.274.274 0 1 1 .522.169l-4.498 13.855a.275.275 0 0 1-.262.19zM132.621 342.077a.275.275 0 0 1-.27-.332l3.03-14.25a.276.276 0 0 1 .326-.212.274.274 0 0 1 .212.326l-3.03 14.25a.274.274 0 0 1-.268.218zM185.252 94.474a.276.276 0 0 1-.269-.332l3.025-14.25a.276.276 0 0 1 .538.114l-3.025 14.25a.274.274 0 0 1-.269.218zM146.458 344.269l-.029-.001a.274.274 0 0 1-.244-.303l1.525-14.488a.27.27 0 0 1 .302-.245.274.274 0 0 1 .244.303l-1.525 14.488a.274.274 0 0 1-.273.246zM172.919 92.521l-.029-.002a.276.276 0 0 1-.245-.302l1.52-14.488a.28.28 0 0 1 .303-.245c.15.016.26.151.245.302l-1.52 14.488a.275.275 0 0 1-.274.247z"/><circle fill="none" stroke="#407F6A" stroke-width="13" stroke-miterlimit="10" cx="160.073" cy="211.29" r="136.246"/><circle fill="none" stroke="#7FFFD4" stroke-width="20" stroke-miterlimit="10" cx="160" cy="211.737" r="150"/><g><circle fill="#7FEAFF" cx="160.578" cy="155.681" r="31.67"/><path d="M160.578 183.855c-15.537 0-28.176-12.639-28.176-28.174 0-15.537 12.64-28.177 28.176-28.177s28.177 12.641 28.177 28.177c0 15.535-12.64 28.174-28.177 28.174zm0-56.072c-15.383 0-27.897 12.514-27.897 27.898 0 15.381 12.514 27.895 27.897 27.895s27.897-12.514 27.897-27.895c-.001-15.383-12.514-27.898-27.897-27.898z"/><path d="M160.578 187.488c-17.539 0-31.809-14.269-31.809-31.807 0-17.54 14.27-31.81 31.809-31.81 17.541 0 31.809 14.27 31.809 31.81 0 17.538-14.269 31.807-31.809 31.807zm0-63.337c-17.386 0-31.53 14.144-31.53 31.53 0 17.384 14.144 31.527 31.53 31.527s31.53-14.143 31.53-31.527c0-17.387-14.144-31.53-31.53-31.53z"/><g><path d="M160.578 187.488a.14.14 0 0 1-.14-.139v-3.448a.14.14 0 0 1 .281 0v3.448a.142.142 0 0 1-.141.139zM160.578 127.597a.14.14 0 0 1-.14-.14v-3.447a.14.14 0 0 1 .281 0v3.447a.142.142 0 0 1-.141.14zM146.467 131.378a.14.14 0 0 1-.121-.07l-1.723-2.985a.14.14 0 0 1 .052-.191.14.14 0 0 1 .19.052l1.723 2.985a.14.14 0 0 1-.121.209zM176.413 183.245a.139.139 0 0 1-.121-.07l-1.723-2.984a.139.139 0 0 1 .051-.191.138.138 0 0 1 .191.052l1.722 2.984a.137.137 0 0 1-.05.19.142.142 0 0 1-.07.019zM136.137 141.708a.14.14 0 0 1-.07-.019l-2.984-1.723a.14.14 0 0 1-.051-.191.14.14 0 0 1 .19-.052l2.985 1.724a.14.14 0 0 1-.07.261zM188.004 171.653a.134.134 0 0 1-.069-.018l-2.986-1.722a.14.14 0 0 1-.05-.191.138.138 0 0 1 .19-.051l2.986 1.722a.14.14 0 0 1-.071.26zM132.356 155.819h-3.447a.14.14 0 0 1 0-.281l3.447.002c.077 0 .139.062.139.139 0 .078-.062.14-.139.14zM188.8 155.82a.14.14 0 1 1 0-.28l3.448-.002a.14.14 0 1 1 0 .28l-3.448.002zM133.151 171.653a.14.14 0 0 1-.071-.26l2.985-1.723a.14.14 0 0 1 .191.051.14.14 0 0 1-.051.191l-2.985 1.722a.12.12 0 0 1-.069.019zM185.02 141.708a.14.14 0 0 1-.071-.261l2.985-1.724a.14.14 0 0 1 .141.242l-2.986 1.724a.136.136 0 0 1-.069.019zM144.743 183.245a.138.138 0 0 1-.121-.208l1.723-2.985a.14.14 0 0 1 .192-.052.14.14 0 0 1 .051.191l-1.724 2.984a.138.138 0 0 1-.121.07zM174.69 131.378a.14.14 0 0 1-.122-.21l1.722-2.986a.14.14 0 1 1 .241.14l-1.721 2.985a.137.137 0 0 1-.12.071zM161.856 187.488a.14.14 0 0 1-.14-.139v-3.448a.14.14 0 0 1 .14-.14.14.14 0 0 1 .14.14v3.448a.14.14 0 0 1-.14.139z"/></g><g><path fill="#C1272D" d="M155.545 151.099l.468-.473 12.627 12.943 12.627 12.944-13.094-12.471-13.095-12.471z"/><ellipse transform="rotate(-151.021 160.152 155.588)" fill="#C1272D" cx="160.147" cy="155.592" rx="1.724" ry="1.666"/><ellipse transform="scale(-1) rotate(29.008 601.498 -619.102)" fill="#231F20" cx="160.147" cy="155.592" rx=".885" ry=".827"/></g></g><path fill="none" stroke="#231F20" stroke-width="5" stroke-miterlimit="10" d="M160.45 210.325v-59.699M160.45 210.325V92.144"/><path fill="#C1272D" d="M136.924 224.265l-1.465-2.47 67.974-38.587 67.973-38.587-66.509 41.057-66.513 41.057z"/><path fill="#C1272D" d="M155.162 215.596c-2.807-2.683-2.833-7.226-.058-10.129 2.776-2.904 7.317-3.085 10.124-.402 2.807 2.683 2.835 7.228.058 10.133-2.775 2.902-7.317 3.081-10.124.398z"/><path fill="#407F6A" d="M157.61 213.033c-1.394-1.332-1.369-3.628.055-5.118 1.426-1.492 3.72-1.622 5.115-.289 1.396 1.333 1.37 3.631-.056 5.124-1.425 1.49-3.718 1.618-5.114.283z"/></svg>
